<mxfile host="app.diagrams.net" modified="2023-11-14T14:19:37.528Z" agent="Mozilla/5.0 (Windows NT 10.0; Win64; x64) AppleWebKit/537.36 (KHTML, like Gecko) Chrome/119.0.0.0 Safari/537.36" etag="ZvK9p4N3jnYs7GMkQeRc" version="22.1.0" type="device">
  <diagram id="C5RBs43oDa-KdzZeNtuy" name="Page-1">
    <mxGraphModel dx="2084" dy="683" grid="1" gridSize="10" guides="1" tooltips="1" connect="1" arrows="1" fold="1" page="1" pageScale="1" pageWidth="827" pageHeight="1169" math="0" shadow="0">
      <root>
        <mxCell id="WIyWlLk6GJQsqaUBKTNV-0" />
        <mxCell id="WIyWlLk6GJQsqaUBKTNV-1" parent="WIyWlLk6GJQsqaUBKTNV-0" />
        <mxCell id="G1ymnawBUQ5r0pba_8AZ-3" style="edgeStyle=orthogonalEdgeStyle;rounded=0;orthogonalLoop=1;jettySize=auto;html=1;endArrow=none;endFill=0;" edge="1" parent="WIyWlLk6GJQsqaUBKTNV-1" source="G1ymnawBUQ5r0pba_8AZ-0" target="G1ymnawBUQ5r0pba_8AZ-1">
          <mxGeometry relative="1" as="geometry" />
        </mxCell>
        <mxCell id="G1ymnawBUQ5r0pba_8AZ-5" value="(1,1)" style="edgeLabel;html=1;align=center;verticalAlign=middle;resizable=0;points=[];" vertex="1" connectable="0" parent="G1ymnawBUQ5r0pba_8AZ-3">
          <mxGeometry x="-0.1143" relative="1" as="geometry">
            <mxPoint as="offset" />
          </mxGeometry>
        </mxCell>
        <mxCell id="G1ymnawBUQ5r0pba_8AZ-42" style="edgeStyle=orthogonalEdgeStyle;rounded=0;orthogonalLoop=1;jettySize=auto;html=1;exitX=0;exitY=0.5;exitDx=0;exitDy=0;entryX=0.5;entryY=1;entryDx=0;entryDy=0;endArrow=none;endFill=0;" edge="1" parent="WIyWlLk6GJQsqaUBKTNV-1" source="G1ymnawBUQ5r0pba_8AZ-0" target="G1ymnawBUQ5r0pba_8AZ-41">
          <mxGeometry relative="1" as="geometry" />
        </mxCell>
        <mxCell id="G1ymnawBUQ5r0pba_8AZ-45" value="(0,n)" style="edgeLabel;html=1;align=center;verticalAlign=middle;resizable=0;points=[];" vertex="1" connectable="0" parent="G1ymnawBUQ5r0pba_8AZ-42">
          <mxGeometry x="-0.0267" y="2" relative="1" as="geometry">
            <mxPoint as="offset" />
          </mxGeometry>
        </mxCell>
        <mxCell id="G1ymnawBUQ5r0pba_8AZ-59" style="edgeStyle=orthogonalEdgeStyle;rounded=0;orthogonalLoop=1;jettySize=auto;html=1;exitX=0.25;exitY=1;exitDx=0;exitDy=0;entryX=0;entryY=0.5;entryDx=0;entryDy=0;" edge="1" parent="WIyWlLk6GJQsqaUBKTNV-1" source="G1ymnawBUQ5r0pba_8AZ-0" target="G1ymnawBUQ5r0pba_8AZ-55">
          <mxGeometry relative="1" as="geometry">
            <Array as="points">
              <mxPoint x="-120" y="1005" />
            </Array>
          </mxGeometry>
        </mxCell>
        <mxCell id="G1ymnawBUQ5r0pba_8AZ-60" style="edgeStyle=orthogonalEdgeStyle;rounded=0;orthogonalLoop=1;jettySize=auto;html=1;exitX=0.25;exitY=1;exitDx=0;exitDy=0;entryX=0;entryY=0.5;entryDx=0;entryDy=0;" edge="1" parent="WIyWlLk6GJQsqaUBKTNV-1" source="G1ymnawBUQ5r0pba_8AZ-0" target="G1ymnawBUQ5r0pba_8AZ-56">
          <mxGeometry relative="1" as="geometry" />
        </mxCell>
        <mxCell id="G1ymnawBUQ5r0pba_8AZ-61" style="edgeStyle=orthogonalEdgeStyle;rounded=0;orthogonalLoop=1;jettySize=auto;html=1;exitX=0.25;exitY=1;exitDx=0;exitDy=0;entryX=0;entryY=0.5;entryDx=0;entryDy=0;" edge="1" parent="WIyWlLk6GJQsqaUBKTNV-1" source="G1ymnawBUQ5r0pba_8AZ-0" target="G1ymnawBUQ5r0pba_8AZ-57">
          <mxGeometry relative="1" as="geometry" />
        </mxCell>
        <mxCell id="G1ymnawBUQ5r0pba_8AZ-62" style="edgeStyle=orthogonalEdgeStyle;rounded=0;orthogonalLoop=1;jettySize=auto;html=1;exitX=0.25;exitY=1;exitDx=0;exitDy=0;entryX=0;entryY=0.5;entryDx=0;entryDy=0;" edge="1" parent="WIyWlLk6GJQsqaUBKTNV-1" source="G1ymnawBUQ5r0pba_8AZ-0" target="G1ymnawBUQ5r0pba_8AZ-58">
          <mxGeometry relative="1" as="geometry" />
        </mxCell>
        <mxCell id="G1ymnawBUQ5r0pba_8AZ-0" value="TAB_Users" style="rounded=0;whiteSpace=wrap;html=1;" vertex="1" parent="WIyWlLk6GJQsqaUBKTNV-1">
          <mxGeometry x="-150" y="920" width="120" height="60" as="geometry" />
        </mxCell>
        <mxCell id="G1ymnawBUQ5r0pba_8AZ-4" style="edgeStyle=orthogonalEdgeStyle;rounded=0;orthogonalLoop=1;jettySize=auto;html=1;entryX=0;entryY=0.5;entryDx=0;entryDy=0;endArrow=none;endFill=0;" edge="1" parent="WIyWlLk6GJQsqaUBKTNV-1" source="G1ymnawBUQ5r0pba_8AZ-1" target="G1ymnawBUQ5r0pba_8AZ-2">
          <mxGeometry relative="1" as="geometry" />
        </mxCell>
        <mxCell id="G1ymnawBUQ5r0pba_8AZ-6" value="(1,1)" style="edgeLabel;html=1;align=center;verticalAlign=middle;resizable=0;points=[];" vertex="1" connectable="0" parent="G1ymnawBUQ5r0pba_8AZ-4">
          <mxGeometry x="0.1429" y="-1" relative="1" as="geometry">
            <mxPoint as="offset" />
          </mxGeometry>
        </mxCell>
        <mxCell id="G1ymnawBUQ5r0pba_8AZ-1" value="Pertence" style="rhombus;whiteSpace=wrap;html=1;" vertex="1" parent="WIyWlLk6GJQsqaUBKTNV-1">
          <mxGeometry x="40" y="920" width="140" height="60" as="geometry" />
        </mxCell>
        <mxCell id="G1ymnawBUQ5r0pba_8AZ-67" style="edgeStyle=orthogonalEdgeStyle;rounded=0;orthogonalLoop=1;jettySize=auto;html=1;exitX=0.25;exitY=1;exitDx=0;exitDy=0;entryX=0;entryY=0.5;entryDx=0;entryDy=0;" edge="1" parent="WIyWlLk6GJQsqaUBKTNV-1" source="G1ymnawBUQ5r0pba_8AZ-2" target="G1ymnawBUQ5r0pba_8AZ-63">
          <mxGeometry relative="1" as="geometry" />
        </mxCell>
        <mxCell id="G1ymnawBUQ5r0pba_8AZ-68" style="edgeStyle=orthogonalEdgeStyle;rounded=0;orthogonalLoop=1;jettySize=auto;html=1;exitX=0.25;exitY=1;exitDx=0;exitDy=0;entryX=0;entryY=0.5;entryDx=0;entryDy=0;" edge="1" parent="WIyWlLk6GJQsqaUBKTNV-1" source="G1ymnawBUQ5r0pba_8AZ-2" target="G1ymnawBUQ5r0pba_8AZ-64">
          <mxGeometry relative="1" as="geometry" />
        </mxCell>
        <mxCell id="G1ymnawBUQ5r0pba_8AZ-69" style="edgeStyle=orthogonalEdgeStyle;rounded=0;orthogonalLoop=1;jettySize=auto;html=1;exitX=0.25;exitY=1;exitDx=0;exitDy=0;entryX=0;entryY=0.5;entryDx=0;entryDy=0;" edge="1" parent="WIyWlLk6GJQsqaUBKTNV-1" source="G1ymnawBUQ5r0pba_8AZ-2" target="G1ymnawBUQ5r0pba_8AZ-65">
          <mxGeometry relative="1" as="geometry" />
        </mxCell>
        <mxCell id="G1ymnawBUQ5r0pba_8AZ-70" style="edgeStyle=orthogonalEdgeStyle;rounded=0;orthogonalLoop=1;jettySize=auto;html=1;exitX=0.25;exitY=1;exitDx=0;exitDy=0;entryX=0;entryY=0.5;entryDx=0;entryDy=0;" edge="1" parent="WIyWlLk6GJQsqaUBKTNV-1" source="G1ymnawBUQ5r0pba_8AZ-2" target="G1ymnawBUQ5r0pba_8AZ-66">
          <mxGeometry relative="1" as="geometry" />
        </mxCell>
        <mxCell id="G1ymnawBUQ5r0pba_8AZ-2" value="TAB_UserProfile" style="rounded=0;whiteSpace=wrap;html=1;" vertex="1" parent="WIyWlLk6GJQsqaUBKTNV-1">
          <mxGeometry x="250" y="920" width="120" height="60" as="geometry" />
        </mxCell>
        <mxCell id="G1ymnawBUQ5r0pba_8AZ-28" style="edgeStyle=orthogonalEdgeStyle;rounded=0;orthogonalLoop=1;jettySize=auto;html=1;endArrow=none;endFill=0;" edge="1" parent="WIyWlLk6GJQsqaUBKTNV-1">
          <mxGeometry relative="1" as="geometry">
            <mxPoint x="119" y="370" as="sourcePoint" />
            <mxPoint x="119" y="435" as="targetPoint" />
          </mxGeometry>
        </mxCell>
        <mxCell id="G1ymnawBUQ5r0pba_8AZ-29" value="Text" style="edgeLabel;html=1;align=center;verticalAlign=middle;resizable=0;points=[];" vertex="1" connectable="0" parent="G1ymnawBUQ5r0pba_8AZ-28">
          <mxGeometry x="0.2923" y="-2" relative="1" as="geometry">
            <mxPoint as="offset" />
          </mxGeometry>
        </mxCell>
        <mxCell id="G1ymnawBUQ5r0pba_8AZ-30" value="(1,n)" style="edgeLabel;html=1;align=center;verticalAlign=middle;resizable=0;points=[];" vertex="1" connectable="0" parent="G1ymnawBUQ5r0pba_8AZ-28">
          <mxGeometry x="0.2308" y="2" relative="1" as="geometry">
            <mxPoint as="offset" />
          </mxGeometry>
        </mxCell>
        <mxCell id="G1ymnawBUQ5r0pba_8AZ-99" style="edgeStyle=orthogonalEdgeStyle;rounded=0;orthogonalLoop=1;jettySize=auto;html=1;exitX=0.5;exitY=0;exitDx=0;exitDy=0;entryX=0;entryY=0.5;entryDx=0;entryDy=0;" edge="1" parent="WIyWlLk6GJQsqaUBKTNV-1" source="G1ymnawBUQ5r0pba_8AZ-7" target="G1ymnawBUQ5r0pba_8AZ-97">
          <mxGeometry relative="1" as="geometry" />
        </mxCell>
        <mxCell id="G1ymnawBUQ5r0pba_8AZ-100" style="edgeStyle=orthogonalEdgeStyle;rounded=0;orthogonalLoop=1;jettySize=auto;html=1;exitX=0.5;exitY=0;exitDx=0;exitDy=0;entryX=0;entryY=0.5;entryDx=0;entryDy=0;" edge="1" parent="WIyWlLk6GJQsqaUBKTNV-1" source="G1ymnawBUQ5r0pba_8AZ-7" target="G1ymnawBUQ5r0pba_8AZ-96">
          <mxGeometry relative="1" as="geometry" />
        </mxCell>
        <mxCell id="G1ymnawBUQ5r0pba_8AZ-101" style="edgeStyle=orthogonalEdgeStyle;rounded=0;orthogonalLoop=1;jettySize=auto;html=1;exitX=0.5;exitY=0;exitDx=0;exitDy=0;entryX=0;entryY=0.5;entryDx=0;entryDy=0;" edge="1" parent="WIyWlLk6GJQsqaUBKTNV-1" source="G1ymnawBUQ5r0pba_8AZ-7" target="G1ymnawBUQ5r0pba_8AZ-95">
          <mxGeometry relative="1" as="geometry" />
        </mxCell>
        <mxCell id="G1ymnawBUQ5r0pba_8AZ-7" value="TAB_Artists" style="rounded=0;whiteSpace=wrap;html=1;" vertex="1" parent="WIyWlLk6GJQsqaUBKTNV-1">
          <mxGeometry x="60" y="310" width="120" height="60" as="geometry" />
        </mxCell>
        <mxCell id="G1ymnawBUQ5r0pba_8AZ-35" style="edgeStyle=orthogonalEdgeStyle;rounded=0;orthogonalLoop=1;jettySize=auto;html=1;entryX=0.5;entryY=0;entryDx=0;entryDy=0;endArrow=none;endFill=0;" edge="1" parent="WIyWlLk6GJQsqaUBKTNV-1" source="G1ymnawBUQ5r0pba_8AZ-8" target="G1ymnawBUQ5r0pba_8AZ-34">
          <mxGeometry relative="1" as="geometry" />
        </mxCell>
        <mxCell id="G1ymnawBUQ5r0pba_8AZ-37" value="(1,n)" style="edgeLabel;html=1;align=center;verticalAlign=middle;resizable=0;points=[];" vertex="1" connectable="0" parent="G1ymnawBUQ5r0pba_8AZ-35">
          <mxGeometry x="-0.0111" y="-2" relative="1" as="geometry">
            <mxPoint as="offset" />
          </mxGeometry>
        </mxCell>
        <mxCell id="G1ymnawBUQ5r0pba_8AZ-91" style="edgeStyle=orthogonalEdgeStyle;rounded=0;orthogonalLoop=1;jettySize=auto;html=1;exitX=0.75;exitY=1;exitDx=0;exitDy=0;entryX=0;entryY=0.5;entryDx=0;entryDy=0;" edge="1" parent="WIyWlLk6GJQsqaUBKTNV-1" source="G1ymnawBUQ5r0pba_8AZ-8" target="G1ymnawBUQ5r0pba_8AZ-87">
          <mxGeometry relative="1" as="geometry" />
        </mxCell>
        <mxCell id="G1ymnawBUQ5r0pba_8AZ-92" style="edgeStyle=orthogonalEdgeStyle;rounded=0;orthogonalLoop=1;jettySize=auto;html=1;exitX=0.75;exitY=1;exitDx=0;exitDy=0;entryX=0;entryY=0.5;entryDx=0;entryDy=0;" edge="1" parent="WIyWlLk6GJQsqaUBKTNV-1" source="G1ymnawBUQ5r0pba_8AZ-8" target="G1ymnawBUQ5r0pba_8AZ-88">
          <mxGeometry relative="1" as="geometry" />
        </mxCell>
        <mxCell id="G1ymnawBUQ5r0pba_8AZ-93" style="edgeStyle=orthogonalEdgeStyle;rounded=0;orthogonalLoop=1;jettySize=auto;html=1;exitX=0.75;exitY=1;exitDx=0;exitDy=0;entryX=0;entryY=0.5;entryDx=0;entryDy=0;" edge="1" parent="WIyWlLk6GJQsqaUBKTNV-1" source="G1ymnawBUQ5r0pba_8AZ-8" target="G1ymnawBUQ5r0pba_8AZ-89">
          <mxGeometry relative="1" as="geometry" />
        </mxCell>
        <mxCell id="G1ymnawBUQ5r0pba_8AZ-94" style="edgeStyle=orthogonalEdgeStyle;rounded=0;orthogonalLoop=1;jettySize=auto;html=1;exitX=0.75;exitY=1;exitDx=0;exitDy=0;entryX=0;entryY=0.5;entryDx=0;entryDy=0;" edge="1" parent="WIyWlLk6GJQsqaUBKTNV-1" source="G1ymnawBUQ5r0pba_8AZ-8" target="G1ymnawBUQ5r0pba_8AZ-90">
          <mxGeometry relative="1" as="geometry" />
        </mxCell>
        <mxCell id="G1ymnawBUQ5r0pba_8AZ-8" value="TAB_Albums" style="rounded=0;whiteSpace=wrap;html=1;" vertex="1" parent="WIyWlLk6GJQsqaUBKTNV-1">
          <mxGeometry x="460" y="310" width="120" height="60" as="geometry" />
        </mxCell>
        <mxCell id="G1ymnawBUQ5r0pba_8AZ-11" style="edgeStyle=orthogonalEdgeStyle;rounded=0;orthogonalLoop=1;jettySize=auto;html=1;entryX=0;entryY=0.5;entryDx=0;entryDy=0;endArrow=none;endFill=0;" edge="1" parent="WIyWlLk6GJQsqaUBKTNV-1" source="G1ymnawBUQ5r0pba_8AZ-9" target="G1ymnawBUQ5r0pba_8AZ-8">
          <mxGeometry relative="1" as="geometry" />
        </mxCell>
        <mxCell id="G1ymnawBUQ5r0pba_8AZ-13" value="(1,1)" style="edgeLabel;html=1;align=center;verticalAlign=middle;resizable=0;points=[];" vertex="1" connectable="0" parent="G1ymnawBUQ5r0pba_8AZ-11">
          <mxGeometry x="-0.0286" y="1" relative="1" as="geometry">
            <mxPoint as="offset" />
          </mxGeometry>
        </mxCell>
        <mxCell id="G1ymnawBUQ5r0pba_8AZ-9" value="Cria" style="rhombus;whiteSpace=wrap;html=1;" vertex="1" parent="WIyWlLk6GJQsqaUBKTNV-1">
          <mxGeometry x="250" y="310" width="140" height="60" as="geometry" />
        </mxCell>
        <mxCell id="G1ymnawBUQ5r0pba_8AZ-10" style="edgeStyle=orthogonalEdgeStyle;rounded=0;orthogonalLoop=1;jettySize=auto;html=1;exitX=1;exitY=0.5;exitDx=0;exitDy=0;endArrow=none;endFill=0;" edge="1" parent="WIyWlLk6GJQsqaUBKTNV-1" source="G1ymnawBUQ5r0pba_8AZ-7" target="G1ymnawBUQ5r0pba_8AZ-9">
          <mxGeometry relative="1" as="geometry">
            <mxPoint x="250" y="341" as="targetPoint" />
          </mxGeometry>
        </mxCell>
        <mxCell id="G1ymnawBUQ5r0pba_8AZ-12" value="(1,n)" style="edgeLabel;html=1;align=center;verticalAlign=middle;resizable=0;points=[];" vertex="1" connectable="0" parent="G1ymnawBUQ5r0pba_8AZ-10">
          <mxGeometry x="-0.0286" y="-3" relative="1" as="geometry">
            <mxPoint as="offset" />
          </mxGeometry>
        </mxCell>
        <mxCell id="G1ymnawBUQ5r0pba_8AZ-22" style="edgeStyle=orthogonalEdgeStyle;rounded=0;orthogonalLoop=1;jettySize=auto;html=1;endArrow=none;endFill=0;" edge="1" parent="WIyWlLk6GJQsqaUBKTNV-1" source="G1ymnawBUQ5r0pba_8AZ-14" target="G1ymnawBUQ5r0pba_8AZ-53">
          <mxGeometry relative="1" as="geometry" />
        </mxCell>
        <mxCell id="G1ymnawBUQ5r0pba_8AZ-24" value="(n,m)" style="edgeLabel;html=1;align=center;verticalAlign=middle;resizable=0;points=[];" vertex="1" connectable="0" parent="G1ymnawBUQ5r0pba_8AZ-22">
          <mxGeometry x="0.1667" y="-1" relative="1" as="geometry">
            <mxPoint x="-18" y="-1" as="offset" />
          </mxGeometry>
        </mxCell>
        <mxCell id="G1ymnawBUQ5r0pba_8AZ-109" style="edgeStyle=orthogonalEdgeStyle;rounded=0;orthogonalLoop=1;jettySize=auto;html=1;exitX=0.25;exitY=0;exitDx=0;exitDy=0;entryX=0;entryY=0.5;entryDx=0;entryDy=0;" edge="1" parent="WIyWlLk6GJQsqaUBKTNV-1" source="G1ymnawBUQ5r0pba_8AZ-14" target="G1ymnawBUQ5r0pba_8AZ-107">
          <mxGeometry relative="1" as="geometry" />
        </mxCell>
        <mxCell id="G1ymnawBUQ5r0pba_8AZ-110" style="edgeStyle=orthogonalEdgeStyle;rounded=0;orthogonalLoop=1;jettySize=auto;html=1;exitX=0.25;exitY=0;exitDx=0;exitDy=0;entryX=0;entryY=0.5;entryDx=0;entryDy=0;" edge="1" parent="WIyWlLk6GJQsqaUBKTNV-1" source="G1ymnawBUQ5r0pba_8AZ-14" target="G1ymnawBUQ5r0pba_8AZ-108">
          <mxGeometry relative="1" as="geometry" />
        </mxCell>
        <mxCell id="G1ymnawBUQ5r0pba_8AZ-14" value="TAB_SongCategories" style="rounded=0;whiteSpace=wrap;html=1;" vertex="1" parent="WIyWlLk6GJQsqaUBKTNV-1">
          <mxGeometry x="-410" y="440" width="120" height="60" as="geometry" />
        </mxCell>
        <mxCell id="G1ymnawBUQ5r0pba_8AZ-83" style="edgeStyle=orthogonalEdgeStyle;rounded=0;orthogonalLoop=1;jettySize=auto;html=1;exitX=0.75;exitY=1;exitDx=0;exitDy=0;entryX=0;entryY=0.5;entryDx=0;entryDy=0;" edge="1" parent="WIyWlLk6GJQsqaUBKTNV-1" source="G1ymnawBUQ5r0pba_8AZ-20" target="G1ymnawBUQ5r0pba_8AZ-79">
          <mxGeometry relative="1" as="geometry">
            <Array as="points">
              <mxPoint x="170" y="630" />
              <mxPoint x="170" y="655" />
            </Array>
          </mxGeometry>
        </mxCell>
        <mxCell id="G1ymnawBUQ5r0pba_8AZ-84" style="edgeStyle=orthogonalEdgeStyle;rounded=0;orthogonalLoop=1;jettySize=auto;html=1;exitX=0.75;exitY=1;exitDx=0;exitDy=0;entryX=0;entryY=0.5;entryDx=0;entryDy=0;" edge="1" parent="WIyWlLk6GJQsqaUBKTNV-1" source="G1ymnawBUQ5r0pba_8AZ-20" target="G1ymnawBUQ5r0pba_8AZ-80">
          <mxGeometry relative="1" as="geometry">
            <Array as="points">
              <mxPoint x="170" y="630" />
              <mxPoint x="170" y="685" />
            </Array>
          </mxGeometry>
        </mxCell>
        <mxCell id="G1ymnawBUQ5r0pba_8AZ-85" style="edgeStyle=orthogonalEdgeStyle;rounded=0;orthogonalLoop=1;jettySize=auto;html=1;exitX=0.75;exitY=1;exitDx=0;exitDy=0;entryX=0;entryY=0.5;entryDx=0;entryDy=0;" edge="1" parent="WIyWlLk6GJQsqaUBKTNV-1" source="G1ymnawBUQ5r0pba_8AZ-20" target="G1ymnawBUQ5r0pba_8AZ-81">
          <mxGeometry relative="1" as="geometry">
            <Array as="points">
              <mxPoint x="170" y="630" />
              <mxPoint x="170" y="715" />
            </Array>
          </mxGeometry>
        </mxCell>
        <mxCell id="G1ymnawBUQ5r0pba_8AZ-86" style="edgeStyle=orthogonalEdgeStyle;rounded=0;orthogonalLoop=1;jettySize=auto;html=1;exitX=0.75;exitY=1;exitDx=0;exitDy=0;entryX=0;entryY=0.5;entryDx=0;entryDy=0;" edge="1" parent="WIyWlLk6GJQsqaUBKTNV-1" source="G1ymnawBUQ5r0pba_8AZ-20" target="G1ymnawBUQ5r0pba_8AZ-82">
          <mxGeometry relative="1" as="geometry">
            <Array as="points">
              <mxPoint x="170" y="630" />
              <mxPoint x="170" y="745" />
            </Array>
          </mxGeometry>
        </mxCell>
        <mxCell id="G1ymnawBUQ5r0pba_8AZ-20" value="TAB_Songs" style="rounded=0;whiteSpace=wrap;html=1;" vertex="1" parent="WIyWlLk6GJQsqaUBKTNV-1">
          <mxGeometry x="68" y="570" width="120" height="60" as="geometry" />
        </mxCell>
        <mxCell id="G1ymnawBUQ5r0pba_8AZ-23" style="edgeStyle=orthogonalEdgeStyle;rounded=0;orthogonalLoop=1;jettySize=auto;html=1;endArrow=none;endFill=0;entryX=0;entryY=0.5;entryDx=0;entryDy=0;exitX=0.5;exitY=1;exitDx=0;exitDy=0;" edge="1" parent="WIyWlLk6GJQsqaUBKTNV-1" source="G1ymnawBUQ5r0pba_8AZ-53" target="G1ymnawBUQ5r0pba_8AZ-20">
          <mxGeometry relative="1" as="geometry" />
        </mxCell>
        <mxCell id="G1ymnawBUQ5r0pba_8AZ-25" value="(n,m)" style="edgeLabel;html=1;align=center;verticalAlign=middle;resizable=0;points=[];" vertex="1" connectable="0" parent="G1ymnawBUQ5r0pba_8AZ-23">
          <mxGeometry x="-0.05" y="2" relative="1" as="geometry">
            <mxPoint x="-32" y="2" as="offset" />
          </mxGeometry>
        </mxCell>
        <mxCell id="G1ymnawBUQ5r0pba_8AZ-26" value="Cria" style="rhombus;whiteSpace=wrap;html=1;" vertex="1" parent="WIyWlLk6GJQsqaUBKTNV-1">
          <mxGeometry x="50" y="435" width="140" height="60" as="geometry" />
        </mxCell>
        <mxCell id="G1ymnawBUQ5r0pba_8AZ-27" style="edgeStyle=orthogonalEdgeStyle;rounded=0;orthogonalLoop=1;jettySize=auto;html=1;entryX=0.433;entryY=0.033;entryDx=0;entryDy=0;entryPerimeter=0;endArrow=none;endFill=0;" edge="1" parent="WIyWlLk6GJQsqaUBKTNV-1" source="G1ymnawBUQ5r0pba_8AZ-26" target="G1ymnawBUQ5r0pba_8AZ-20">
          <mxGeometry relative="1" as="geometry" />
        </mxCell>
        <mxCell id="G1ymnawBUQ5r0pba_8AZ-31" value="()" style="edgeLabel;html=1;align=center;verticalAlign=middle;resizable=0;points=[];" vertex="1" connectable="0" parent="G1ymnawBUQ5r0pba_8AZ-27">
          <mxGeometry x="-0.0904" y="1" relative="1" as="geometry">
            <mxPoint as="offset" />
          </mxGeometry>
        </mxCell>
        <mxCell id="G1ymnawBUQ5r0pba_8AZ-32" value="(1,1)" style="edgeLabel;html=1;align=center;verticalAlign=middle;resizable=0;points=[];" vertex="1" connectable="0" parent="G1ymnawBUQ5r0pba_8AZ-27">
          <mxGeometry x="-0.1164" y="1" relative="1" as="geometry">
            <mxPoint as="offset" />
          </mxGeometry>
        </mxCell>
        <mxCell id="G1ymnawBUQ5r0pba_8AZ-36" style="edgeStyle=orthogonalEdgeStyle;rounded=0;orthogonalLoop=1;jettySize=auto;html=1;entryX=1;entryY=0.5;entryDx=0;entryDy=0;endArrow=none;endFill=0;" edge="1" parent="WIyWlLk6GJQsqaUBKTNV-1" source="G1ymnawBUQ5r0pba_8AZ-34" target="G1ymnawBUQ5r0pba_8AZ-20">
          <mxGeometry relative="1" as="geometry" />
        </mxCell>
        <mxCell id="G1ymnawBUQ5r0pba_8AZ-38" value="(1,1)" style="edgeLabel;html=1;align=center;verticalAlign=middle;resizable=0;points=[];" vertex="1" connectable="0" parent="G1ymnawBUQ5r0pba_8AZ-36">
          <mxGeometry x="0.0142" relative="1" as="geometry">
            <mxPoint as="offset" />
          </mxGeometry>
        </mxCell>
        <mxCell id="G1ymnawBUQ5r0pba_8AZ-34" value="Contem" style="rhombus;whiteSpace=wrap;html=1;" vertex="1" parent="WIyWlLk6GJQsqaUBKTNV-1">
          <mxGeometry x="370" y="470" width="140" height="60" as="geometry" />
        </mxCell>
        <mxCell id="G1ymnawBUQ5r0pba_8AZ-47" style="edgeStyle=orthogonalEdgeStyle;rounded=0;orthogonalLoop=1;jettySize=auto;html=1;endArrow=none;endFill=0;" edge="1" parent="WIyWlLk6GJQsqaUBKTNV-1" source="G1ymnawBUQ5r0pba_8AZ-40" target="G1ymnawBUQ5r0pba_8AZ-46">
          <mxGeometry relative="1" as="geometry" />
        </mxCell>
        <mxCell id="G1ymnawBUQ5r0pba_8AZ-50" value="(0,n)" style="edgeLabel;html=1;align=center;verticalAlign=middle;resizable=0;points=[];" vertex="1" connectable="0" parent="G1ymnawBUQ5r0pba_8AZ-47">
          <mxGeometry x="-0.1224" y="2" relative="1" as="geometry">
            <mxPoint as="offset" />
          </mxGeometry>
        </mxCell>
        <mxCell id="G1ymnawBUQ5r0pba_8AZ-75" style="edgeStyle=orthogonalEdgeStyle;rounded=0;orthogonalLoop=1;jettySize=auto;html=1;exitX=1;exitY=1;exitDx=0;exitDy=0;entryX=0;entryY=0.5;entryDx=0;entryDy=0;" edge="1" parent="WIyWlLk6GJQsqaUBKTNV-1" source="G1ymnawBUQ5r0pba_8AZ-40" target="G1ymnawBUQ5r0pba_8AZ-71">
          <mxGeometry relative="1" as="geometry">
            <Array as="points">
              <mxPoint x="-170" y="765" />
            </Array>
          </mxGeometry>
        </mxCell>
        <mxCell id="G1ymnawBUQ5r0pba_8AZ-76" style="edgeStyle=orthogonalEdgeStyle;rounded=0;orthogonalLoop=1;jettySize=auto;html=1;exitX=1;exitY=1;exitDx=0;exitDy=0;entryX=0;entryY=0.5;entryDx=0;entryDy=0;" edge="1" parent="WIyWlLk6GJQsqaUBKTNV-1" source="G1ymnawBUQ5r0pba_8AZ-40" target="G1ymnawBUQ5r0pba_8AZ-72">
          <mxGeometry relative="1" as="geometry">
            <Array as="points">
              <mxPoint x="-170" y="770" />
              <mxPoint x="-150" y="770" />
              <mxPoint x="-150" y="795" />
            </Array>
          </mxGeometry>
        </mxCell>
        <mxCell id="G1ymnawBUQ5r0pba_8AZ-77" style="edgeStyle=orthogonalEdgeStyle;rounded=0;orthogonalLoop=1;jettySize=auto;html=1;exitX=1;exitY=1;exitDx=0;exitDy=0;entryX=0;entryY=0.5;entryDx=0;entryDy=0;" edge="1" parent="WIyWlLk6GJQsqaUBKTNV-1" source="G1ymnawBUQ5r0pba_8AZ-40" target="G1ymnawBUQ5r0pba_8AZ-73">
          <mxGeometry relative="1" as="geometry">
            <Array as="points">
              <mxPoint x="-170" y="770" />
              <mxPoint x="-150" y="770" />
              <mxPoint x="-150" y="825" />
            </Array>
          </mxGeometry>
        </mxCell>
        <mxCell id="G1ymnawBUQ5r0pba_8AZ-78" style="edgeStyle=orthogonalEdgeStyle;rounded=0;orthogonalLoop=1;jettySize=auto;html=1;exitX=1;exitY=1;exitDx=0;exitDy=0;entryX=0;entryY=0.5;entryDx=0;entryDy=0;" edge="1" parent="WIyWlLk6GJQsqaUBKTNV-1" source="G1ymnawBUQ5r0pba_8AZ-40" target="G1ymnawBUQ5r0pba_8AZ-74">
          <mxGeometry relative="1" as="geometry">
            <Array as="points">
              <mxPoint x="-170" y="770" />
              <mxPoint x="-150" y="770" />
              <mxPoint x="-150" y="855" />
            </Array>
          </mxGeometry>
        </mxCell>
        <mxCell id="G1ymnawBUQ5r0pba_8AZ-40" value="TAB_Playlists" style="rounded=0;whiteSpace=wrap;html=1;" vertex="1" parent="WIyWlLk6GJQsqaUBKTNV-1">
          <mxGeometry x="-290" y="690" width="120" height="60" as="geometry" />
        </mxCell>
        <mxCell id="G1ymnawBUQ5r0pba_8AZ-43" style="edgeStyle=orthogonalEdgeStyle;rounded=0;orthogonalLoop=1;jettySize=auto;html=1;exitX=0.5;exitY=0;exitDx=0;exitDy=0;endArrow=none;endFill=0;" edge="1" parent="WIyWlLk6GJQsqaUBKTNV-1" source="G1ymnawBUQ5r0pba_8AZ-41" target="G1ymnawBUQ5r0pba_8AZ-40">
          <mxGeometry relative="1" as="geometry" />
        </mxCell>
        <mxCell id="G1ymnawBUQ5r0pba_8AZ-44" value="(1,1)" style="edgeLabel;html=1;align=center;verticalAlign=middle;resizable=0;points=[];" vertex="1" connectable="0" parent="G1ymnawBUQ5r0pba_8AZ-43">
          <mxGeometry x="0.0571" y="-1" relative="1" as="geometry">
            <mxPoint as="offset" />
          </mxGeometry>
        </mxCell>
        <mxCell id="G1ymnawBUQ5r0pba_8AZ-41" value="Pertence" style="rhombus;whiteSpace=wrap;html=1;" vertex="1" parent="WIyWlLk6GJQsqaUBKTNV-1">
          <mxGeometry x="-300" y="820" width="140" height="60" as="geometry" />
        </mxCell>
        <mxCell id="G1ymnawBUQ5r0pba_8AZ-48" style="edgeStyle=orthogonalEdgeStyle;rounded=0;orthogonalLoop=1;jettySize=auto;html=1;entryX=0.5;entryY=1;entryDx=0;entryDy=0;endArrow=none;endFill=0;" edge="1" parent="WIyWlLk6GJQsqaUBKTNV-1" source="G1ymnawBUQ5r0pba_8AZ-46" target="G1ymnawBUQ5r0pba_8AZ-20">
          <mxGeometry relative="1" as="geometry" />
        </mxCell>
        <mxCell id="G1ymnawBUQ5r0pba_8AZ-49" value="(0,n)" style="edgeLabel;html=1;align=center;verticalAlign=middle;resizable=0;points=[];" vertex="1" connectable="0" parent="G1ymnawBUQ5r0pba_8AZ-48">
          <mxGeometry x="-0.0842" y="3" relative="1" as="geometry">
            <mxPoint as="offset" />
          </mxGeometry>
        </mxCell>
        <mxCell id="G1ymnawBUQ5r0pba_8AZ-46" value="Contem" style="rhombus;whiteSpace=wrap;html=1;" vertex="1" parent="WIyWlLk6GJQsqaUBKTNV-1">
          <mxGeometry x="-72" y="690" width="140" height="60" as="geometry" />
        </mxCell>
        <mxCell id="G1ymnawBUQ5r0pba_8AZ-55" value="&lt;u&gt;ID&lt;/u&gt;" style="text;html=1;strokeColor=none;fillColor=none;align=left;verticalAlign=middle;whiteSpace=wrap;rounded=0;imageAlign=left;" vertex="1" parent="WIyWlLk6GJQsqaUBKTNV-1">
          <mxGeometry x="-100" y="990" width="60" height="30" as="geometry" />
        </mxCell>
        <mxCell id="G1ymnawBUQ5r0pba_8AZ-56" value="email&amp;nbsp;" style="text;html=1;strokeColor=none;fillColor=none;align=left;verticalAlign=middle;whiteSpace=wrap;rounded=0;imageAlign=left;" vertex="1" parent="WIyWlLk6GJQsqaUBKTNV-1">
          <mxGeometry x="-100" y="1020" width="60" height="30" as="geometry" />
        </mxCell>
        <mxCell id="G1ymnawBUQ5r0pba_8AZ-57" value="password&amp;nbsp;" style="text;html=1;strokeColor=none;fillColor=none;align=left;verticalAlign=middle;whiteSpace=wrap;rounded=0;imageAlign=left;" vertex="1" parent="WIyWlLk6GJQsqaUBKTNV-1">
          <mxGeometry x="-100" y="1050" width="60" height="30" as="geometry" />
        </mxCell>
        <mxCell id="G1ymnawBUQ5r0pba_8AZ-58" value="role&amp;nbsp;" style="text;html=1;strokeColor=none;fillColor=none;align=left;verticalAlign=middle;whiteSpace=wrap;rounded=0;imageAlign=left;" vertex="1" parent="WIyWlLk6GJQsqaUBKTNV-1">
          <mxGeometry x="-100" y="1080" width="60" height="30" as="geometry" />
        </mxCell>
        <mxCell id="G1ymnawBUQ5r0pba_8AZ-63" value="&lt;u&gt;ID&lt;/u&gt;" style="text;html=1;strokeColor=none;fillColor=none;align=left;verticalAlign=middle;whiteSpace=wrap;rounded=0;imageAlign=left;" vertex="1" parent="WIyWlLk6GJQsqaUBKTNV-1">
          <mxGeometry x="320" y="990" width="60" height="30" as="geometry" />
        </mxCell>
        <mxCell id="G1ymnawBUQ5r0pba_8AZ-64" value="name&amp;nbsp;" style="text;html=1;strokeColor=none;fillColor=none;align=left;verticalAlign=middle;whiteSpace=wrap;rounded=0;imageAlign=left;" vertex="1" parent="WIyWlLk6GJQsqaUBKTNV-1">
          <mxGeometry x="320" y="1020" width="60" height="30" as="geometry" />
        </mxCell>
        <mxCell id="G1ymnawBUQ5r0pba_8AZ-65" value="birthday_date&amp;nbsp;" style="text;html=1;strokeColor=none;fillColor=none;align=left;verticalAlign=middle;whiteSpace=wrap;rounded=0;imageAlign=left;" vertex="1" parent="WIyWlLk6GJQsqaUBKTNV-1">
          <mxGeometry x="320" y="1050" width="60" height="30" as="geometry" />
        </mxCell>
        <mxCell id="G1ymnawBUQ5r0pba_8AZ-66" value="picture_url&amp;nbsp;" style="text;html=1;strokeColor=none;fillColor=none;align=left;verticalAlign=middle;whiteSpace=wrap;rounded=0;imageAlign=left;" vertex="1" parent="WIyWlLk6GJQsqaUBKTNV-1">
          <mxGeometry x="320" y="1080" width="60" height="30" as="geometry" />
        </mxCell>
        <mxCell id="G1ymnawBUQ5r0pba_8AZ-71" value="&lt;u&gt;ID&lt;/u&gt;" style="text;html=1;strokeColor=none;fillColor=none;align=left;verticalAlign=middle;whiteSpace=wrap;rounded=0;imageAlign=left;" vertex="1" parent="WIyWlLk6GJQsqaUBKTNV-1">
          <mxGeometry x="-120" y="750" width="60" height="30" as="geometry" />
        </mxCell>
        <mxCell id="G1ymnawBUQ5r0pba_8AZ-72" value="name&amp;nbsp;" style="text;html=1;strokeColor=none;fillColor=none;align=left;verticalAlign=middle;whiteSpace=wrap;rounded=0;imageAlign=left;" vertex="1" parent="WIyWlLk6GJQsqaUBKTNV-1">
          <mxGeometry x="-120" y="780" width="60" height="30" as="geometry" />
        </mxCell>
        <mxCell id="G1ymnawBUQ5r0pba_8AZ-73" value="description&amp;nbsp;" style="text;html=1;strokeColor=none;fillColor=none;align=left;verticalAlign=middle;whiteSpace=wrap;rounded=0;imageAlign=left;" vertex="1" parent="WIyWlLk6GJQsqaUBKTNV-1">
          <mxGeometry x="-120" y="810" width="60" height="30" as="geometry" />
        </mxCell>
        <mxCell id="G1ymnawBUQ5r0pba_8AZ-74" value="image_url&amp;nbsp;" style="text;html=1;strokeColor=none;fillColor=none;align=left;verticalAlign=middle;whiteSpace=wrap;rounded=0;imageAlign=left;" vertex="1" parent="WIyWlLk6GJQsqaUBKTNV-1">
          <mxGeometry x="-120" y="840" width="60" height="30" as="geometry" />
        </mxCell>
        <mxCell id="G1ymnawBUQ5r0pba_8AZ-79" value="&lt;u&gt;ID&lt;/u&gt;" style="text;html=1;strokeColor=none;fillColor=none;align=left;verticalAlign=middle;whiteSpace=wrap;rounded=0;imageAlign=left;" vertex="1" parent="WIyWlLk6GJQsqaUBKTNV-1">
          <mxGeometry x="220" y="640" width="60" height="30" as="geometry" />
        </mxCell>
        <mxCell id="G1ymnawBUQ5r0pba_8AZ-80" value="name&amp;nbsp;" style="text;html=1;strokeColor=none;fillColor=none;align=left;verticalAlign=middle;whiteSpace=wrap;rounded=0;imageAlign=left;" vertex="1" parent="WIyWlLk6GJQsqaUBKTNV-1">
          <mxGeometry x="220" y="670" width="60" height="30" as="geometry" />
        </mxCell>
        <mxCell id="G1ymnawBUQ5r0pba_8AZ-81" value="image_url&amp;nbsp;" style="text;html=1;strokeColor=none;fillColor=none;align=left;verticalAlign=middle;whiteSpace=wrap;rounded=0;imageAlign=left;" vertex="1" parent="WIyWlLk6GJQsqaUBKTNV-1">
          <mxGeometry x="220" y="700" width="60" height="30" as="geometry" />
        </mxCell>
        <mxCell id="G1ymnawBUQ5r0pba_8AZ-82" value="song_url&amp;nbsp;" style="text;html=1;strokeColor=none;fillColor=none;align=left;verticalAlign=middle;whiteSpace=wrap;rounded=0;imageAlign=left;" vertex="1" parent="WIyWlLk6GJQsqaUBKTNV-1">
          <mxGeometry x="220" y="730" width="60" height="30" as="geometry" />
        </mxCell>
        <mxCell id="G1ymnawBUQ5r0pba_8AZ-87" value="&lt;u&gt;ID&lt;/u&gt;" style="text;html=1;strokeColor=none;fillColor=none;align=left;verticalAlign=middle;whiteSpace=wrap;rounded=0;imageAlign=left;" vertex="1" parent="WIyWlLk6GJQsqaUBKTNV-1">
          <mxGeometry x="590" y="390" width="60" height="30" as="geometry" />
        </mxCell>
        <mxCell id="G1ymnawBUQ5r0pba_8AZ-88" value="name&amp;nbsp;" style="text;html=1;strokeColor=none;fillColor=none;align=left;verticalAlign=middle;whiteSpace=wrap;rounded=0;imageAlign=left;" vertex="1" parent="WIyWlLk6GJQsqaUBKTNV-1">
          <mxGeometry x="590" y="420" width="60" height="30" as="geometry" />
        </mxCell>
        <mxCell id="G1ymnawBUQ5r0pba_8AZ-89" value="image_url&amp;nbsp;" style="text;html=1;strokeColor=none;fillColor=none;align=left;verticalAlign=middle;whiteSpace=wrap;rounded=0;imageAlign=left;" vertex="1" parent="WIyWlLk6GJQsqaUBKTNV-1">
          <mxGeometry x="590" y="450" width="60" height="30" as="geometry" />
        </mxCell>
        <mxCell id="G1ymnawBUQ5r0pba_8AZ-90" value="publication_date&amp;nbsp;" style="text;html=1;strokeColor=none;fillColor=none;align=left;verticalAlign=middle;whiteSpace=wrap;rounded=0;imageAlign=left;" vertex="1" parent="WIyWlLk6GJQsqaUBKTNV-1">
          <mxGeometry x="590" y="480" width="60" height="30" as="geometry" />
        </mxCell>
        <mxCell id="G1ymnawBUQ5r0pba_8AZ-95" value="&lt;u&gt;ID&lt;/u&gt;" style="text;html=1;strokeColor=none;fillColor=none;align=left;verticalAlign=middle;whiteSpace=wrap;rounded=0;imageAlign=left;" vertex="1" parent="WIyWlLk6GJQsqaUBKTNV-1">
          <mxGeometry x="150" y="200" width="60" height="30" as="geometry" />
        </mxCell>
        <mxCell id="G1ymnawBUQ5r0pba_8AZ-96" value="name&amp;nbsp;" style="text;html=1;strokeColor=none;fillColor=none;align=left;verticalAlign=middle;whiteSpace=wrap;rounded=0;imageAlign=left;" vertex="1" parent="WIyWlLk6GJQsqaUBKTNV-1">
          <mxGeometry x="150" y="230" width="60" height="30" as="geometry" />
        </mxCell>
        <mxCell id="G1ymnawBUQ5r0pba_8AZ-97" value="image_url&amp;nbsp;" style="text;html=1;strokeColor=none;fillColor=none;align=left;verticalAlign=middle;whiteSpace=wrap;rounded=0;imageAlign=left;" vertex="1" parent="WIyWlLk6GJQsqaUBKTNV-1">
          <mxGeometry x="150" y="260" width="60" height="30" as="geometry" />
        </mxCell>
        <mxCell id="G1ymnawBUQ5r0pba_8AZ-102" value="" style="group" vertex="1" connectable="0" parent="WIyWlLk6GJQsqaUBKTNV-1">
          <mxGeometry x="-190" y="435" width="160" height="70" as="geometry" />
        </mxCell>
        <mxCell id="G1ymnawBUQ5r0pba_8AZ-21" value="Faz parte" style="rhombus;whiteSpace=wrap;html=1;" vertex="1" parent="G1ymnawBUQ5r0pba_8AZ-102">
          <mxGeometry x="10" y="5" width="140" height="60" as="geometry" />
        </mxCell>
        <mxCell id="G1ymnawBUQ5r0pba_8AZ-53" value="" style="rhombus;whiteSpace=wrap;html=1;strokeColor=default;fillColor=none;" vertex="1" parent="G1ymnawBUQ5r0pba_8AZ-102">
          <mxGeometry width="160" height="70" as="geometry" />
        </mxCell>
        <mxCell id="G1ymnawBUQ5r0pba_8AZ-107" value="&lt;u&gt;ID&lt;/u&gt;" style="text;html=1;strokeColor=none;fillColor=none;align=left;verticalAlign=middle;whiteSpace=wrap;rounded=0;imageAlign=left;" vertex="1" parent="WIyWlLk6GJQsqaUBKTNV-1">
          <mxGeometry x="-340" y="360" width="60" height="30" as="geometry" />
        </mxCell>
        <mxCell id="G1ymnawBUQ5r0pba_8AZ-108" value="name&amp;nbsp;" style="text;html=1;strokeColor=none;fillColor=none;align=left;verticalAlign=middle;whiteSpace=wrap;rounded=0;imageAlign=left;" vertex="1" parent="WIyWlLk6GJQsqaUBKTNV-1">
          <mxGeometry x="-340" y="390" width="60" height="30" as="geometry" />
        </mxCell>
      </root>
    </mxGraphModel>
  </diagram>
</mxfile>
